# MagicaVoxel @ Ephtracy

# group
g cherry

# material
mtllib cherry.mtl
usemtl palette

# normals
vn -1 0 0
vn 1 0 0
vn 0 0 1
vn 0 0 -1
vn 0 -1 0
vn 0 1 0

# texcoords
vt 0.0683594 0.5
vt 0.841797 0.5

# verts
v -7 2 5
v -7 2 2
v -7 3 5
v -7 3 2
v -6 1 5
v -6 1 2
v -6 2 6
v -6 2 5
v -6 2 2
v -6 2 1
v -6 3 6
v -6 3 5
v -6 3 2
v -6 3 1
v -6 4 5
v -6 4 2
v -5 0 5
v -5 0 2
v -5 1 6
v -5 1 5
v -5 1 2
v -5 1 1
v -5 2 7
v -5 2 6
v -5 2 5
v -5 2 2
v -5 2 1
v -5 2 -0
v -5 3 7
v -5 3 6
v -5 3 5
v -5 3 2
v -5 3 1
v -5 3 -0
v -5 4 6
v -5 4 5
v -5 4 2
v -5 4 1
v -5 5 5
v -5 5 2
v -4 5 4
v -4 5 3
v -4 7 4
v -4 7 3
v -3 7 4
v -3 7 3
v -3 8 4
v -3 8 3
v -2 8 4
v -2 8 3
v -2 9 4
v -2 9 3
v -1 2 -1
v -1 2 -4
v -1 3 -1
v -1 3 -4
v -1 8 3
v -1 8 2
v -1 9 3
v -1 10 3
v -1 10 2
v 0 1 -1
v 0 1 -4
v 0 2 -0
v 0 2 -1
v 0 2 -4
v 0 2 -5
v 0 3 -0
v 0 3 -1
v 0 3 -4
v 0 3 -5
v 0 4 -1
v 0 4 -4
v 0 10 3
v 0 10 2
v 0 11 3
v 0 11 2
v 1 0 -1
v 1 0 -4
v 1 1 -0
v 1 1 -1
v 1 1 -4
v 1 1 -5
v 1 2 1
v 1 2 -0
v 1 2 -1
v 1 2 -4
v 1 2 -5
v 1 2 -6
v 1 3 1
v 1 3 -0
v 1 3 -1
v 1 3 -4
v 1 3 -5
v 1 3 -6
v 1 4 -0
v 1 4 -1
v 1 4 -4
v 1 4 -5
v 1 5 -1
v 1 5 -4
v 1 10 2
v 1 10 1
v 1 11 2
v 1 11 1
v 2 5 -2
v 2 5 -3
v 2 8 -2
v 2 8 -3
v 2 11 2
v 2 11 1
v 2 12 2
v 2 12 1
v 3 8 -1
v 3 8 -2
v 3 10 -0
v 3 10 -1
v 3 11 1
v 3 11 -0
v 3 11 -2
v 3 12 1
v 3 12 -0
v 4 11 -0
v 4 11 -1
v 4 12 1
v 4 12 -0
v 4 12 -1
v 4 13 1
v 4 13 -0
v 5 12 -0
v 5 12 -1
v 5 13 -0
v 5 13 -1
v -3 5 4
v -3 5 3
v -3 7 4
v -3 7 3
v -2 0 5
v -2 0 2
v -2 1 6
v -2 1 5
v -2 1 2
v -2 1 1
v -2 2 7
v -2 2 6
v -2 2 5
v -2 2 2
v -2 2 1
v -2 2 -0
v -2 3 7
v -2 3 6
v -2 3 5
v -2 3 2
v -2 3 1
v -2 3 -0
v -2 4 6
v -2 4 5
v -2 4 2
v -2 4 1
v -2 5 5
v -2 5 2
v -1 1 5
v -1 1 2
v -1 2 6
v -1 2 5
v -1 2 2
v -1 2 1
v -1 3 6
v -1 3 5
v -1 3 2
v -1 3 1
v -1 4 5
v -1 4 2
v -1 7 4
v -1 7 3
v -1 8 3
v -1 9 4
v -1 9 3
v 0 2 5
v 0 2 2
v 0 3 5
v 0 3 2
v 0 8 3
v 0 8 2
v 0 9 3
v 0 9 2
v 1 9 3
v 1 9 2
v 1 10 2
v 1 11 3
v 1 11 2
v 3 5 -2
v 3 5 -3
v 3 7 -2
v 3 7 -3
v 3 10 2
v 3 10 1
v 3 11 2
v 3 11 1
v 4 0 -1
v 4 0 -4
v 4 1 -0
v 4 1 -1
v 4 1 -4
v 4 1 -5
v 4 2 1
v 4 2 -0
v 4 2 -1
v 4 2 -4
v 4 2 -5
v 4 2 -6
v 4 3 1
v 4 3 -0
v 4 3 -1
v 4 3 -4
v 4 3 -5
v 4 3 -6
v 4 4 -0
v 4 4 -1
v 4 4 -4
v 4 4 -5
v 4 5 -1
v 4 5 -4
v 4 7 -2
v 4 7 -3
v 4 8 -1
v 4 8 -2
v 4 8 -3
v 4 10 -0
v 4 10 -1
v 4 11 2
v 4 11 -0
v 4 11 -1
v 4 11 -2
v 4 12 2
v 4 12 1
v 4 12 -0
v 5 1 -1
v 5 1 -4
v 5 2 -0
v 5 2 -1
v 5 2 -4
v 5 2 -5
v 5 3 -0
v 5 3 -1
v 5 3 -4
v 5 3 -5
v 5 4 -1
v 5 4 -4
v 5 11 -0
v 5 11 -1
v 5 12 -0
v 5 12 -1
v 6 2 -1
v 6 2 -4
v 6 3 -1
v 6 3 -4
v 6 12 1
v 6 12 -1
v 6 13 1
v 6 13 -1
v -5 2 7
v -5 3 7
v -2 2 7
v -2 3 7
v -6 2 6
v -6 3 6
v -5 1 6
v -5 2 6
v -5 3 6
v -5 4 6
v -2 1 6
v -2 2 6
v -2 3 6
v -2 4 6
v -1 2 6
v -1 3 6
v -7 2 5
v -7 3 5
v -6 1 5
v -6 2 5
v -6 3 5
v -6 4 5
v -5 0 5
v -5 1 5
v -5 2 5
v -5 3 5
v -5 4 5
v -5 5 5
v -2 0 5
v -2 1 5
v -2 2 5
v -2 3 5
v -2 4 5
v -2 5 5
v -1 1 5
v -1 2 5
v -1 3 5
v -1 4 5
v 0 2 5
v 0 3 5
v -4 5 4
v -4 7 4
v -3 5 4
v -3 7 4
v -3 8 4
v -2 8 4
v -2 9 4
v -1 7 4
v -1 9 4
v -1 8 3
v -1 9 3
v -1 10 3
v 0 8 3
v 0 9 3
v 0 10 3
v 0 11 3
v 1 9 3
v 1 11 3
v 1 10 2
v 1 11 2
v 2 11 2
v 2 12 2
v 3 10 2
v 3 11 2
v 4 11 2
v 4 12 2
v 1 2 1
v 1 3 1
v 4 2 1
v 4 3 1
v 4 12 1
v 4 13 1
v 6 12 1
v 6 13 1
v 0 2 -0
v 0 3 -0
v 1 1 -0
v 1 2 -0
v 1 3 -0
v 1 4 -0
v 3 10 -0
v 3 11 -0
v 4 1 -0
v 4 2 -0
v 4 3 -0
v 4 4 -0
v 4 10 -0
v 4 11 -0
v 4 12 -0
v 5 2 -0
v 5 3 -0
v 5 11 -0
v 5 12 -0
v -1 2 -1
v -1 3 -1
v 0 1 -1
v 0 2 -1
v 0 3 -1
v 0 4 -1
v 1 0 -1
v 1 1 -1
v 1 2 -1
v 1 3 -1
v 1 4 -1
v 1 5 -1
v 3 8 -1
v 3 10 -1
v 4 0 -1
v 4 1 -1
v 4 2 -1
v 4 3 -1
v 4 4 -1
v 4 5 -1
v 4 8 -1
v 4 10 -1
v 5 1 -1
v 5 2 -1
v 5 3 -1
v 5 4 -1
v 6 2 -1
v 6 3 -1
v 2 5 -2
v 2 8 -2
v 3 5 -2
v 3 7 -2
v 3 8 -2
v 4 7 -2
v 4 8 -2
v -4 5 3
v -4 7 3
v -3 5 3
v -3 7 3
v -3 8 3
v -2 8 3
v -2 9 3
v -1 7 3
v -1 8 3
v -1 9 3
v -7 2 2
v -7 3 2
v -6 1 2
v -6 2 2
v -6 3 2
v -6 4 2
v -5 0 2
v -5 1 2
v -5 2 2
v -5 3 2
v -5 4 2
v -5 5 2
v -2 0 2
v -2 1 2
v -2 2 2
v -2 3 2
v -2 4 2
v -2 5 2
v -1 1 2
v -1 2 2
v -1 3 2
v -1 4 2
v -1 8 2
v -1 10 2
v 0 2 2
v 0 3 2
v 0 8 2
v 0 9 2
v 0 10 2
v 0 11 2
v 1 9 2
v 1 10 2
v 1 11 2
v -6 2 1
v -6 3 1
v -5 1 1
v -5 2 1
v -5 3 1
v -5 4 1
v -2 1 1
v -2 2 1
v -2 3 1
v -2 4 1
v -1 2 1
v -1 3 1
v 1 10 1
v 1 11 1
v 2 11 1
v 2 12 1
v 3 10 1
v 3 11 1
v 3 12 1
v -5 2 -0
v -5 3 -0
v -2 2 -0
v -2 3 -0
v 3 11 -0
v 3 12 -0
v 4 11 -0
v 4 12 -0
v 4 13 -0
v 5 12 -0
v 5 13 -0
v 4 11 -1
v 4 12 -1
v 5 11 -1
v 5 12 -1
v 5 13 -1
v 6 12 -1
v 6 13 -1
v 3 8 -2
v 3 11 -2
v 4 8 -2
v 4 11 -2
v 2 5 -3
v 2 8 -3
v 3 5 -3
v 3 7 -3
v 4 7 -3
v 4 8 -3
v -1 2 -4
v -1 3 -4
v 0 1 -4
v 0 2 -4
v 0 3 -4
v 0 4 -4
v 1 0 -4
v 1 1 -4
v 1 2 -4
v 1 3 -4
v 1 4 -4
v 1 5 -4
v 4 0 -4
v 4 1 -4
v 4 2 -4
v 4 3 -4
v 4 4 -4
v 4 5 -4
v 5 1 -4
v 5 2 -4
v 5 3 -4
v 5 4 -4
v 6 2 -4
v 6 3 -4
v 0 2 -5
v 0 3 -5
v 1 1 -5
v 1 2 -5
v 1 3 -5
v 1 4 -5
v 4 1 -5
v 4 2 -5
v 4 3 -5
v 4 4 -5
v 5 2 -5
v 5 3 -5
v 1 2 -6
v 1 3 -6
v 4 2 -6
v 4 3 -6
v -5 0 5
v -2 0 5
v -5 0 2
v -2 0 2
v 1 0 -1
v 4 0 -1
v 1 0 -4
v 4 0 -4
v -5 1 6
v -2 1 6
v -6 1 5
v -5 1 5
v -2 1 5
v -1 1 5
v -6 1 2
v -5 1 2
v -2 1 2
v -1 1 2
v -5 1 1
v -2 1 1
v 1 1 -0
v 4 1 -0
v 0 1 -1
v 1 1 -1
v 4 1 -1
v 5 1 -1
v 0 1 -4
v 1 1 -4
v 4 1 -4
v 5 1 -4
v 1 1 -5
v 4 1 -5
v -5 2 7
v -2 2 7
v -6 2 6
v -5 2 6
v -2 2 6
v -1 2 6
v -7 2 5
v -6 2 5
v -5 2 5
v -2 2 5
v -1 2 5
v 0 2 5
v -7 2 2
v -6 2 2
v -5 2 2
v -2 2 2
v -1 2 2
v 0 2 2
v -6 2 1
v -5 2 1
v -2 2 1
v -1 2 1
v 1 2 1
v 4 2 1
v -5 2 -0
v -2 2 -0
v 0 2 -0
v 1 2 -0
v 4 2 -0
v 5 2 -0
v -1 2 -1
v 0 2 -1
v 1 2 -1
v 4 2 -1
v 5 2 -1
v 6 2 -1
v -1 2 -4
v 0 2 -4
v 1 2 -4
v 4 2 -4
v 5 2 -4
v 6 2 -4
v 0 2 -5
v 1 2 -5
v 4 2 -5
v 5 2 -5
v 1 2 -6
v 4 2 -6
v -3 7 4
v -1 7 4
v -3 7 3
v -1 7 3
v 3 7 -2
v 4 7 -2
v 3 7 -3
v 4 7 -3
v -1 8 3
v 0 8 3
v -1 8 2
v 0 8 2
v 3 8 -1
v 4 8 -1
v 3 8 -2
v 4 8 -2
v 0 9 3
v 1 9 3
v 0 9 2
v 1 9 2
v 1 10 2
v 3 10 2
v 1 10 1
v 3 10 1
v 3 10 -0
v 4 10 -0
v 3 10 -1
v 4 10 -1
v 3 11 2
v 4 11 2
v 3 11 1
v 3 11 -0
v 4 11 -0
v 5 11 -0
v 4 11 -1
v 5 11 -1
v 4 12 1
v 6 12 1
v 4 12 -0
v 5 12 -0
v 5 12 -1
v 6 12 -1
v -5 3 7
v -2 3 7
v -6 3 6
v -5 3 6
v -2 3 6
v -1 3 6
v -7 3 5
v -6 3 5
v -5 3 5
v -2 3 5
v -1 3 5
v 0 3 5
v -7 3 2
v -6 3 2
v -5 3 2
v -2 3 2
v -1 3 2
v 0 3 2
v -6 3 1
v -5 3 1
v -2 3 1
v -1 3 1
v 1 3 1
v 4 3 1
v -5 3 -0
v -2 3 -0
v 0 3 -0
v 1 3 -0
v 4 3 -0
v 5 3 -0
v -1 3 -1
v 0 3 -1
v 1 3 -1
v 4 3 -1
v 5 3 -1
v 6 3 -1
v -1 3 -4
v 0 3 -4
v 1 3 -4
v 4 3 -4
v 5 3 -4
v 6 3 -4
v 0 3 -5
v 1 3 -5
v 4 3 -5
v 5 3 -5
v 1 3 -6
v 4 3 -6
v -5 4 6
v -2 4 6
v -6 4 5
v -5 4 5
v -2 4 5
v -1 4 5
v -6 4 2
v -5 4 2
v -2 4 2
v -1 4 2
v -5 4 1
v -2 4 1
v 1 4 -0
v 4 4 -0
v 0 4 -1
v 1 4 -1
v 4 4 -1
v 5 4 -1
v 0 4 -4
v 1 4 -4
v 4 4 -4
v 5 4 -4
v 1 4 -5
v 4 4 -5
v -5 5 5
v -2 5 5
v -4 5 4
v -3 5 4
v -4 5 3
v -3 5 3
v -5 5 2
v -2 5 2
v 1 5 -1
v 4 5 -1
v 2 5 -2
v 3 5 -2
v 2 5 -3
v 3 5 -3
v 1 5 -4
v 4 5 -4
v -4 7 4
v -3 7 4
v -4 7 3
v -3 7 3
v -3 8 4
v -2 8 4
v -3 8 3
v -2 8 3
v 2 8 -2
v 3 8 -2
v 4 8 -2
v 2 8 -3
v 4 8 -3
v -2 9 4
v -1 9 4
v -2 9 3
v -1 9 3
v -1 10 3
v 0 10 3
v -1 10 2
v 0 10 2
v 0 11 3
v 1 11 3
v 0 11 2
v 1 11 2
v 2 11 2
v 1 11 1
v 2 11 1
v 3 11 -0
v 4 11 -0
v 4 11 -1
v 3 11 -2
v 4 11 -2
v 2 12 2
v 4 12 2
v 2 12 1
v 3 12 1
v 4 12 1
v 3 12 -0
v 4 12 -0
v 5 12 -0
v 4 12 -1
v 5 12 -1
v 4 13 1
v 6 13 1
v 4 13 -0
v 5 13 -0
v 5 13 -1
v 6 13 -1

# faces
f 3/2/1 2/2/1 1/2/1
f 4/2/1 2/2/1 3/2/1
f 8/2/1 6/2/1 5/2/1
f 9/2/1 6/2/1 8/2/1
f 11/2/1 8/2/1 7/2/1
f 12/2/1 8/2/1 11/2/1
f 13/2/1 10/2/1 9/2/1
f 14/2/1 10/2/1 13/2/1
f 15/2/1 13/2/1 12/2/1
f 16/2/1 13/2/1 15/2/1
f 20/2/1 18/2/1 17/2/1
f 21/2/1 18/2/1 20/2/1
f 24/2/1 20/2/1 19/2/1
f 25/2/1 20/2/1 24/2/1
f 26/2/1 22/2/1 21/2/1
f 27/2/1 22/2/1 26/2/1
f 29/2/1 24/2/1 23/2/1
f 30/2/1 24/2/1 29/2/1
f 33/2/1 28/2/1 27/2/1
f 34/2/1 28/2/1 33/2/1
f 35/2/1 31/2/1 30/2/1
f 36/2/1 31/2/1 35/2/1
f 37/2/1 33/2/1 32/2/1
f 38/2/1 33/2/1 37/2/1
f 39/2/1 37/2/1 36/2/1
f 40/2/1 37/2/1 39/2/1
f 43/1/1 42/1/1 41/1/1
f 44/1/1 42/1/1 43/1/1
f 47/1/1 46/1/1 45/1/1
f 48/1/1 46/1/1 47/1/1
f 51/1/1 50/1/1 49/1/1
f 52/1/1 50/1/1 51/1/1
f 55/2/1 54/2/1 53/2/1
f 56/2/1 54/2/1 55/2/1
f 59/1/1 58/1/1 57/1/1
f 60/1/1 58/1/1 59/1/1
f 61/1/1 58/1/1 60/1/1
f 65/2/1 63/2/1 62/2/1
f 66/2/1 63/2/1 65/2/1
f 68/2/1 65/2/1 64/2/1
f 69/2/1 65/2/1 68/2/1
f 70/2/1 67/2/1 66/2/1
f 71/2/1 67/2/1 70/2/1
f 72/2/1 70/2/1 69/2/1
f 73/2/1 70/2/1 72/2/1
f 76/1/1 75/1/1 74/1/1
f 77/1/1 75/1/1 76/1/1
f 81/2/1 79/2/1 78/2/1
f 82/2/1 79/2/1 81/2/1
f 85/2/1 81/2/1 80/2/1
f 86/2/1 81/2/1 85/2/1
f 87/2/1 83/2/1 82/2/1
f 88/2/1 83/2/1 87/2/1
f 90/2/1 85/2/1 84/2/1
f 91/2/1 85/2/1 90/2/1
f 94/2/1 89/2/1 88/2/1
f 95/2/1 89/2/1 94/2/1
f 96/2/1 92/2/1 91/2/1
f 97/2/1 92/2/1 96/2/1
f 98/2/1 94/2/1 93/2/1
f 99/2/1 94/2/1 98/2/1
f 100/2/1 98/2/1 97/2/1
f 101/2/1 98/2/1 100/2/1
f 104/1/1 103/1/1 102/1/1
f 105/1/1 103/1/1 104/1/1
f 108/1/1 107/1/1 106/1/1
f 109/1/1 107/1/1 108/1/1
f 112/1/1 111/1/1 110/1/1
f 113/1/1 111/1/1 112/1/1
f 117/1/1 115/1/1 114/1/1
f 119/1/1 117/1/1 116/1/1
f 120/1/1 115/1/1 117/1/1
f 120/1/1 117/1/1 119/1/1
f 121/1/1 119/1/1 118/1/1
f 122/1/1 119/1/1 121/1/1
f 126/1/1 124/1/1 123/1/1
f 127/1/1 124/1/1 126/1/1
f 128/1/1 126/1/1 125/1/1
f 129/1/1 126/1/1 128/1/1
f 132/1/1 131/1/1 130/1/1
f 133/1/1 131/1/1 132/1/1
f 134/1/2 135/1/2 136/1/2
f 136/1/2 135/1/2 137/1/2
f 138/2/2 139/2/2 141/2/2
f 141/2/2 139/2/2 142/2/2
f 140/2/2 141/2/2 145/2/2
f 145/2/2 141/2/2 146/2/2
f 142/2/2 143/2/2 147/2/2
f 147/2/2 143/2/2 148/2/2
f 144/2/2 145/2/2 150/2/2
f 150/2/2 145/2/2 151/2/2
f 148/2/2 149/2/2 154/2/2
f 154/2/2 149/2/2 155/2/2
f 151/2/2 152/2/2 156/2/2
f 156/2/2 152/2/2 157/2/2
f 153/2/2 154/2/2 158/2/2
f 158/2/2 154/2/2 159/2/2
f 157/2/2 158/2/2 160/2/2
f 160/2/2 158/2/2 161/2/2
f 162/2/2 163/2/2 165/2/2
f 165/2/2 163/2/2 166/2/2
f 164/2/2 165/2/2 168/2/2
f 168/2/2 165/2/2 169/2/2
f 166/2/2 167/2/2 170/2/2
f 170/2/2 167/2/2 171/2/2
f 169/2/2 170/2/2 172/2/2
f 172/2/2 170/2/2 173/2/2
f 174/1/2 175/1/2 176/1/2
f 174/1/2 176/1/2 177/1/2
f 177/1/2 176/1/2 178/1/2
f 179/2/2 180/2/2 181/2/2
f 181/2/2 180/2/2 182/2/2
f 183/1/2 184/1/2 185/1/2
f 185/1/2 184/1/2 186/1/2
f 187/1/2 188/1/2 189/1/2
f 187/1/2 189/1/2 190/1/2
f 190/1/2 189/1/2 191/1/2
f 192/1/2 193/1/2 194/1/2
f 194/1/2 193/1/2 195/1/2
f 196/1/2 197/1/2 198/1/2
f 198/1/2 197/1/2 199/1/2
f 200/2/2 201/2/2 203/2/2
f 203/2/2 201/2/2 204/2/2
f 202/2/2 203/2/2 207/2/2
f 207/2/2 203/2/2 208/2/2
f 204/2/2 205/2/2 209/2/2
f 209/2/2 205/2/2 210/2/2
f 206/2/2 207/2/2 212/2/2
f 212/2/2 207/2/2 213/2/2
f 210/2/2 211/2/2 216/2/2
f 216/2/2 211/2/2 217/2/2
f 213/2/2 214/2/2 218/2/2
f 218/2/2 214/2/2 219/2/2
f 215/2/2 216/2/2 220/2/2
f 220/2/2 216/2/2 221/2/2
f 219/2/2 220/2/2 222/2/2
f 222/2/2 220/2/2 223/2/2
f 224/1/2 225/1/2 227/1/2
f 227/1/2 225/1/2 228/1/2
f 226/1/2 227/1/2 230/1/2
f 229/1/2 230/1/2 232/1/2
f 230/1/2 227/1/2 233/1/2
f 232/1/2 230/1/2 233/1/2
f 233/1/2 227/1/2 234/1/2
f 231/1/2 232/1/2 235/1/2
f 235/1/2 232/1/2 236/1/2
f 236/1/2 232/1/2 237/1/2
f 238/2/2 239/2/2 241/2/2
f 241/2/2 239/2/2 242/2/2
f 240/2/2 241/2/2 244/2/2
f 244/2/2 241/2/2 245/2/2
f 242/2/2 243/2/2 246/2/2
f 246/2/2 243/2/2 247/2/2
f 245/2/2 246/2/2 248/2/2
f 248/2/2 246/2/2 249/2/2
f 250/1/2 251/1/2 252/1/2
f 252/1/2 251/1/2 253/1/2
f 254/2/2 255/2/2 256/2/2
f 256/2/2 255/2/2 257/2/2
f 258/1/2 259/1/2 260/1/2
f 260/1/2 259/1/2 261/1/2
f 264/2/3 263/2/3 262/2/3
f 265/2/3 263/2/3 264/2/3
f 269/2/3 267/2/3 266/2/3
f 270/2/3 267/2/3 269/2/3
f 272/2/3 269/2/3 268/2/3
f 273/2/3 269/2/3 272/2/3
f 274/2/3 271/2/3 270/2/3
f 275/2/3 271/2/3 274/2/3
f 276/2/3 274/2/3 273/2/3
f 277/2/3 274/2/3 276/2/3
f 281/2/3 279/2/3 278/2/3
f 282/2/3 279/2/3 281/2/3
f 285/2/3 281/2/3 280/2/3
f 286/2/3 281/2/3 285/2/3
f 287/2/3 283/2/3 282/2/3
f 288/2/3 283/2/3 287/2/3
f 290/2/3 285/2/3 284/2/3
f 291/2/3 285/2/3 290/2/3
f 294/2/3 289/2/3 288/2/3
f 295/2/3 289/2/3 294/2/3
f 296/2/3 292/2/3 291/2/3
f 297/2/3 292/2/3 296/2/3
f 298/2/3 294/2/3 293/2/3
f 299/2/3 294/2/3 298/2/3
f 300/2/3 298/2/3 297/2/3
f 301/2/3 298/2/3 300/2/3
f 304/1/3 303/1/3 302/1/3
f 305/1/3 303/1/3 304/1/3
f 307/1/3 306/1/3 305/1/3
f 309/1/3 307/1/3 305/1/3
f 309/1/3 308/1/3 307/1/3
f 310/1/3 308/1/3 309/1/3
f 314/1/3 312/1/3 311/1/3
f 314/1/3 313/1/3 312/1/3
f 315/1/3 313/1/3 314/1/3
f 316/1/3 313/1/3 315/1/3
f 318/1/3 317/1/3 316/1/3
f 318/1/3 316/1/3 315/1/3
f 319/1/3 317/1/3 318/1/3
f 322/1/3 321/1/3 320/1/3
f 324/1/3 322/1/3 320/1/3
f 324/1/3 323/1/3 322/1/3
f 325/1/3 323/1/3 324/1/3
f 326/1/3 323/1/3 325/1/3
f 327/1/3 323/1/3 326/1/3
f 330/2/3 329/2/3 328/2/3
f 331/2/3 329/2/3 330/2/3
f 334/1/3 333/1/3 332/1/3
f 335/1/3 333/1/3 334/1/3
f 339/2/3 337/2/3 336/2/3
f 340/2/3 337/2/3 339/2/3
f 344/2/3 339/2/3 338/2/3
f 345/2/3 339/2/3 344/2/3
f 346/2/3 341/2/3 340/2/3
f 347/2/3 341/2/3 346/2/3
f 348/1/3 343/1/3 342/1/3
f 349/1/3 343/1/3 348/1/3
f 351/2/3 346/2/3 345/2/3
f 352/2/3 346/2/3 351/2/3
f 353/1/3 350/1/3 349/1/3
f 354/1/3 350/1/3 353/1/3
f 358/2/3 356/2/3 355/2/3
f 359/2/3 356/2/3 358/2/3
f 362/2/3 358/2/3 357/2/3
f 363/2/3 358/2/3 362/2/3
f 364/2/3 360/2/3 359/2/3
f 365/2/3 360/2/3 364/2/3
f 369/2/3 362/2/3 361/2/3
f 370/2/3 362/2/3 369/2/3
f 373/2/3 366/2/3 365/2/3
f 374/2/3 366/2/3 373/2/3
f 375/1/3 368/1/3 367/1/3
f 376/1/3 368/1/3 375/1/3
f 377/2/3 371/2/3 370/2/3
f 378/2/3 371/2/3 377/2/3
f 379/2/3 373/2/3 372/2/3
f 380/2/3 373/2/3 379/2/3
f 381/2/3 379/2/3 378/2/3
f 382/2/3 379/2/3 381/2/3
f 385/1/3 384/1/3 383/1/3
f 386/1/3 384/1/3 385/1/3
f 387/1/3 384/1/3 386/1/3
f 388/1/3 387/1/3 386/1/3
f 389/1/3 387/1/3 388/1/3
f 390/1/4 391/1/4 392/1/4
f 392/1/4 391/1/4 393/1/4
f 393/1/4 394/1/4 395/1/4
f 393/1/4 395/1/4 397/1/4
f 395/1/4 396/1/4 397/1/4
f 397/1/4 396/1/4 398/1/4
f 398/1/4 396/1/4 399/1/4
f 400/2/4 401/2/4 403/2/4
f 403/2/4 401/2/4 404/2/4
f 402/2/4 403/2/4 407/2/4
f 407/2/4 403/2/4 408/2/4
f 404/2/4 405/2/4 409/2/4
f 409/2/4 405/2/4 410/2/4
f 406/2/4 407/2/4 412/2/4
f 412/2/4 407/2/4 413/2/4
f 410/2/4 411/2/4 416/2/4
f 416/2/4 411/2/4 417/2/4
f 413/2/4 414/2/4 418/2/4
f 418/2/4 414/2/4 419/2/4
f 415/2/4 416/2/4 420/2/4
f 420/2/4 416/2/4 421/2/4
f 419/2/4 420/2/4 424/2/4
f 424/2/4 420/2/4 425/2/4
f 422/1/4 423/1/4 426/1/4
f 426/1/4 423/1/4 427/1/4
f 427/1/4 423/1/4 428/1/4
f 428/1/4 429/1/4 430/1/4
f 427/1/4 428/1/4 430/1/4
f 430/1/4 429/1/4 431/1/4
f 431/1/4 429/1/4 432/1/4
f 433/2/4 434/2/4 436/2/4
f 436/2/4 434/2/4 437/2/4
f 435/2/4 436/2/4 439/2/4
f 439/2/4 436/2/4 440/2/4
f 437/2/4 438/2/4 441/2/4
f 441/2/4 438/2/4 442/2/4
f 440/2/4 441/2/4 443/2/4
f 443/2/4 441/2/4 444/2/4
f 445/1/4 446/1/4 447/1/4
f 445/1/4 447/1/4 449/1/4
f 447/1/4 448/1/4 449/1/4
f 449/1/4 448/1/4 450/1/4
f 450/1/4 448/1/4 451/1/4
f 452/2/4 453/2/4 454/2/4
f 454/2/4 453/2/4 455/2/4
f 456/1/4 457/1/4 458/1/4
f 458/1/4 457/1/4 459/1/4
f 459/1/4 460/1/4 461/1/4
f 461/1/4 460/1/4 462/1/4
f 463/1/4 464/1/4 465/1/4
f 465/1/4 464/1/4 466/1/4
f 466/1/4 467/1/4 468/1/4
f 468/1/4 467/1/4 469/1/4
f 470/1/4 471/1/4 472/1/4
f 472/1/4 471/1/4 473/1/4
f 474/1/4 475/1/4 476/1/4
f 476/1/4 475/1/4 477/1/4
f 477/1/4 475/1/4 478/1/4
f 478/1/4 475/1/4 479/1/4
f 480/2/4 481/2/4 483/2/4
f 483/2/4 481/2/4 484/2/4
f 482/2/4 483/2/4 487/2/4
f 487/2/4 483/2/4 488/2/4
f 484/2/4 485/2/4 489/2/4
f 489/2/4 485/2/4 490/2/4
f 486/2/4 487/2/4 492/2/4
f 492/2/4 487/2/4 493/2/4
f 490/2/4 491/2/4 496/2/4
f 496/2/4 491/2/4 497/2/4
f 493/2/4 494/2/4 498/2/4
f 498/2/4 494/2/4 499/2/4
f 495/2/4 496/2/4 500/2/4
f 500/2/4 496/2/4 501/2/4
f 499/2/4 500/2/4 502/2/4
f 502/2/4 500/2/4 503/2/4
f 504/2/4 505/2/4 507/2/4
f 507/2/4 505/2/4 508/2/4
f 506/2/4 507/2/4 510/2/4
f 510/2/4 507/2/4 511/2/4
f 508/2/4 509/2/4 512/2/4
f 512/2/4 509/2/4 513/2/4
f 511/2/4 512/2/4 514/2/4
f 514/2/4 512/2/4 515/2/4
f 516/2/4 517/2/4 518/2/4
f 518/2/4 517/2/4 519/2/4
f 522/2/5 521/2/5 520/2/5
f 523/2/5 521/2/5 522/2/5
f 526/2/5 525/2/5 524/2/5
f 527/2/5 525/2/5 526/2/5
f 531/2/5 529/2/5 528/2/5
f 532/2/5 529/2/5 531/2/5
f 534/2/5 531/2/5 530/2/5
f 535/2/5 531/2/5 534/2/5
f 536/2/5 533/2/5 532/2/5
f 537/2/5 533/2/5 536/2/5
f 538/2/5 536/2/5 535/2/5
f 539/2/5 536/2/5 538/2/5
f 543/2/5 541/2/5 540/2/5
f 544/2/5 541/2/5 543/2/5
f 546/2/5 543/2/5 542/2/5
f 547/2/5 543/2/5 546/2/5
f 548/2/5 545/2/5 544/2/5
f 549/2/5 545/2/5 548/2/5
f 550/2/5 548/2/5 547/2/5
f 551/2/5 548/2/5 550/2/5
f 555/2/5 553/2/5 552/2/5
f 556/2/5 553/2/5 555/2/5
f 559/2/5 555/2/5 554/2/5
f 560/2/5 555/2/5 559/2/5
f 561/2/5 557/2/5 556/2/5
f 562/2/5 557/2/5 561/2/5
f 564/2/5 559/2/5 558/2/5
f 565/2/5 559/2/5 564/2/5
f 568/2/5 563/2/5 562/2/5
f 569/2/5 563/2/5 568/2/5
f 570/2/5 566/2/5 565/2/5
f 571/2/5 566/2/5 570/2/5
f 572/2/5 568/2/5 567/2/5
f 573/2/5 568/2/5 572/2/5
f 576/2/5 572/2/5 571/2/5
f 577/2/5 572/2/5 576/2/5
f 579/2/5 575/2/5 574/2/5
f 580/2/5 575/2/5 579/2/5
f 583/2/5 579/2/5 578/2/5
f 584/2/5 579/2/5 583/2/5
f 585/2/5 581/2/5 580/2/5
f 586/2/5 581/2/5 585/2/5
f 588/2/5 583/2/5 582/2/5
f 589/2/5 583/2/5 588/2/5
f 592/2/5 587/2/5 586/2/5
f 593/2/5 587/2/5 592/2/5
f 594/2/5 590/2/5 589/2/5
f 595/2/5 590/2/5 594/2/5
f 596/2/5 592/2/5 591/2/5
f 597/2/5 592/2/5 596/2/5
f 598/2/5 596/2/5 595/2/5
f 599/2/5 596/2/5 598/2/5
f 602/1/5 601/1/5 600/1/5
f 603/1/5 601/1/5 602/1/5
f 606/1/5 605/1/5 604/1/5
f 607/1/5 605/1/5 606/1/5
f 610/1/5 609/1/5 608/1/5
f 611/1/5 609/1/5 610/1/5
f 614/1/5 613/1/5 612/1/5
f 615/1/5 613/1/5 614/1/5
f 618/1/5 617/1/5 616/1/5
f 619/1/5 617/1/5 618/1/5
f 622/1/5 621/1/5 620/1/5
f 623/1/5 621/1/5 622/1/5
f 626/1/5 625/1/5 624/1/5
f 627/1/5 625/1/5 626/1/5
f 630/1/5 629/1/5 628/1/5
f 631/1/5 629/1/5 630/1/5
f 632/1/5 629/1/5 631/1/5
f 634/1/5 633/1/5 632/1/5
f 635/1/5 633/1/5 634/1/5
f 638/1/5 637/1/5 636/1/5
f 639/1/5 637/1/5 638/1/5
f 640/1/5 637/1/5 639/1/5
f 641/1/5 637/1/5 640/1/5
f 642/2/6 643/2/6 645/2/6
f 645/2/6 643/2/6 646/2/6
f 644/2/6 645/2/6 649/2/6
f 649/2/6 645/2/6 650/2/6
f 646/2/6 647/2/6 651/2/6
f 651/2/6 647/2/6 652/2/6
f 648/2/6 649/2/6 654/2/6
f 654/2/6 649/2/6 655/2/6
f 652/2/6 653/2/6 658/2/6
f 658/2/6 653/2/6 659/2/6
f 655/2/6 656/2/6 660/2/6
f 660/2/6 656/2/6 661/2/6
f 657/2/6 658/2/6 662/2/6
f 662/2/6 658/2/6 663/2/6
f 661/2/6 662/2/6 666/2/6
f 666/2/6 662/2/6 667/2/6
f 664/2/6 665/2/6 669/2/6
f 669/2/6 665/2/6 670/2/6
f 668/2/6 669/2/6 673/2/6
f 673/2/6 669/2/6 674/2/6
f 670/2/6 671/2/6 675/2/6
f 675/2/6 671/2/6 676/2/6
f 672/2/6 673/2/6 678/2/6
f 678/2/6 673/2/6 679/2/6
f 676/2/6 677/2/6 682/2/6
f 682/2/6 677/2/6 683/2/6
f 679/2/6 680/2/6 684/2/6
f 684/2/6 680/2/6 685/2/6
f 681/2/6 682/2/6 686/2/6
f 686/2/6 682/2/6 687/2/6
f 685/2/6 686/2/6 688/2/6
f 688/2/6 686/2/6 689/2/6
f 690/2/6 691/2/6 693/2/6
f 693/2/6 691/2/6 694/2/6
f 692/2/6 693/2/6 696/2/6
f 696/2/6 693/2/6 697/2/6
f 694/2/6 695/2/6 698/2/6
f 698/2/6 695/2/6 699/2/6
f 697/2/6 698/2/6 700/2/6
f 700/2/6 698/2/6 701/2/6
f 702/2/6 703/2/6 705/2/6
f 705/2/6 703/2/6 706/2/6
f 704/2/6 705/2/6 708/2/6
f 708/2/6 705/2/6 709/2/6
f 706/2/6 707/2/6 710/2/6
f 710/2/6 707/2/6 711/2/6
f 709/2/6 710/2/6 712/2/6
f 712/2/6 710/2/6 713/2/6
f 714/2/6 715/2/6 716/2/6
f 716/2/6 715/2/6 717/2/6
f 714/2/6 716/2/6 718/2/6
f 717/2/6 715/2/6 719/2/6
f 714/2/6 718/2/6 720/2/6
f 718/2/6 719/2/6 720/2/6
f 719/2/6 715/2/6 721/2/6
f 720/2/6 719/2/6 721/2/6
f 722/2/6 723/2/6 724/2/6
f 724/2/6 723/2/6 725/2/6
f 722/2/6 724/2/6 726/2/6
f 725/2/6 723/2/6 727/2/6
f 722/2/6 726/2/6 728/2/6
f 726/2/6 727/2/6 728/2/6
f 727/2/6 723/2/6 729/2/6
f 728/2/6 727/2/6 729/2/6
f 730/1/6 731/1/6 732/1/6
f 732/1/6 731/1/6 733/1/6
f 734/1/6 735/1/6 736/1/6
f 736/1/6 735/1/6 737/1/6
f 738/1/6 739/1/6 741/1/6
f 739/1/6 740/1/6 741/1/6
f 741/1/6 740/1/6 742/1/6
f 743/1/6 744/1/6 745/1/6
f 745/1/6 744/1/6 746/1/6
f 747/1/6 748/1/6 749/1/6
f 749/1/6 748/1/6 750/1/6
f 751/1/6 752/1/6 753/1/6
f 753/1/6 752/1/6 754/1/6
f 754/1/6 755/1/6 756/1/6
f 756/1/6 755/1/6 757/1/6
f 758/1/6 759/1/6 760/1/6
f 758/1/6 760/1/6 761/1/6
f 761/1/6 760/1/6 762/1/6
f 763/1/6 764/1/6 765/1/6
f 765/1/6 764/1/6 766/1/6
f 766/1/6 764/1/6 767/1/6
f 766/1/6 767/1/6 768/1/6
f 768/1/6 767/1/6 769/1/6
f 769/1/6 770/1/6 771/1/6
f 771/1/6 770/1/6 772/1/6
f 773/1/6 774/1/6 775/1/6
f 775/1/6 774/1/6 776/1/6
f 776/1/6 774/1/6 777/1/6
f 777/1/6 774/1/6 778/1/6
